<?xml version="1.0" encoding="utf-8"?>
<!-- Generator: Adobe Illustrator 21.0.2, SVG Export Plug-In . SVG Version: 6.00 Build 0)  -->
<svg version="1.1" id="Layer_1" xmlns="http://www.w3.org/2000/svg" xmlns:xlink="http://www.w3.org/1999/xlink" x="0px" y="0px"
	 viewBox="0 0 451 359" style="enable-background:new 0 0 451 359;" xml:space="preserve">
<style type="text/css">
	.st0{fill:#414042;}
	.st1{fill:#E6E7E8;}
	.st2{fill:#F6B6C4;}
	.st3{fill:#FFFFFF;}
</style>
<g>
	<path class="st0" d="M443.9,216.2c-18,1.3-35.6,3.6-53,6.7c-1.8,0.3-3.7,0.7-5.5,1.1c-27.1,5.2-53.6,12.7-80,22.5
		c-2.6,0.9-1.6,4.9,0.8,4.4c0.1,0,0.3,0,0.4-0.1c25.6-9.6,51.2-16.9,77.4-22c1.8-0.4,3.7-0.7,5.5-1.1c17.8-3.3,35.9-5.7,54.4-7
		C446.8,220.5,446.8,216,443.9,216.2z"/>
	<path class="st0" d="M306.3,257.2c-0.1,0-0.2,0-0.2,0c-2.9,0.2-2.9,4.7,0,4.5c20.4-1.3,40.7-1.4,61-0.5c1.9,0.1,3.8,0.1,5.7,0.2
		c22.6,1.2,45.1,3.8,67.4,7.7c2.8,0.5,4-3.8,1.2-4.3c-21.8-3.8-43.7-6.4-65.7-7.7c-1.8-0.1-3.6-0.2-5.5-0.3
		C348.9,255.8,327.6,255.8,306.3,257.2z"/>
	<path class="st0" d="M306.3,251c-0.3,0-0.5,0.1-0.8,0.1c-2.7,0.5-1.7,4.4,0.7,4.4c0.2,0,0.3,0,0.4,0c23.3-4.2,46.7-7.4,70.2-9.8
		c1.9-0.2,3.7-0.4,5.6-0.6c17.5-1.6,35-2.8,52.6-3.5c2.9-0.1,2.9-4.6,0-4.5c-16.8,0.6-33.6,1.7-50.4,3.2c-1.8,0.2-3.6,0.4-5.5,0.5
		C354.7,243.4,330.4,246.7,306.3,251z"/>
	<path class="st0" d="M62,137.2c2.6-4.4,9.2-10.6,10.3-15.3c1.3-5.8-3.1-16.6-4-22.6c-3.1-18.4-5.7-37.2-6.6-55.9
		c-0.2-3.4-0.9-8.2,0-11.5c3.9-14.2,12.6-11,20.3-6.1c5,3.1,9.3,7.4,13.9,11.2c13.9,11.5,27.7,22.9,41,35c0.6,0.5,1.5,0.9,2.2,0.6
		c49.7-20.3,103.5-18.9,152.9,1.9c0.7,0.3,1.6-0.1,2.2-0.6c11-10,22.2-19.8,33.7-29.3c8.1-6.7,21.2-21.9,32.2-22.7
		c19-1.4,9.8,39.5,8.8,49.3c-1.9,17.2-4.8,34.2-8.2,51.2c-0.1,0.5,0,0.9,0.1,1.2c0,0.2,0.1,0.4,0.2,0.6c0.1,0.2,0.1,0.3,0.2,0.4
		c24.4,29.5,33.9,65.2,24.5,99.4c1.8-0.4,3.7-0.7,5.5-1.1c9.6-36.1-2.9-72.1-26.1-100.5c4.9-24.6,8.7-49.6,10.5-74.7
		c0.9-12,1.7-33.3-16.5-30.4c-6.7,1.1-12.4,5.8-17.5,10c-8.8,7.3-17.6,14.5-26.3,21.9c-4.1,3.5-8.2,7-12.3,10.6
		c-6.5,5.7-8.4,9.4-17.2,7.2c-12.2-2.9-23.7-8-36.2-10.4c-21.8-4.2-44.1-4.6-66.1-1.3c-11.8,1.8-23.3,4.6-34.5,8.5
		c-9.2,3.2-10.8,3-18.2-3.5c-5.2-4.6-10.4-9.1-15.7-13.6c-7.8-6.6-15.7-13.1-23.6-19.6c-5.2-4.3-11.2-9.2-18.1-10.1
		C53.6,14.7,56.6,40,57.7,52c1.1,11.8,2.4,23.7,4.1,35.4c1.8,12.9,8.6,29.1,0.8,40.4c-11.2,16.4-19,35.3-22.4,54.9
		c-2.2,12.4-2.5,24.9-1.1,37c1.6,0.2,3.3,0.4,4.9,0.7C40.4,192.3,46.6,162.8,62,137.2z"/>
	<path class="st0" d="M379.2,241c1.8-0.2,3.6-0.4,5.5-0.5c1.9-4.1,3.5-8.4,4.9-12.7c-1.8,0.3-3.7,0.7-5.5,1.1
		C382.7,232.9,381.1,237,379.2,241z"/>
	<path class="st1" d="M360.9,124.6c-0.1-0.1-0.2-0.3-0.2-0.4c-0.1-0.2-0.2-0.4-0.2-0.6c-0.1-0.4-0.2-0.7-0.1-1.2
		c3.4-16.9,6.3-34,8.2-51.2c1.1-9.8,10.2-50.6-8.8-49.3c-10.9,0.8-24.1,16-32.2,22.7C316.2,54,305,63.8,294,73.8
		c-0.5,0.5-1.4,0.9-2.2,0.6c-49.3-20.8-103.1-22.2-152.9-1.9c-0.7,0.3-1.6-0.1-2.2-0.6c-13.4-12.1-27.2-23.5-41-35
		c-4.6-3.8-8.9-8.1-13.9-11.2c-7.7-4.8-16.4-8.1-20.3,6.1c-0.9,3.3-0.1,8.1,0,11.5c0.9,18.7,3.6,37.5,6.6,55.9
		c1,5.9,5.3,16.8,4,22.6c-1.1,4.8-7.7,11-10.3,15.3c-15.3,25.6-21.5,55.1-17.9,83.2c34.4,5.1,67.8,13.7,101,26.1
		c2.5,0.9,1.6,4.9-0.8,4.4c-0.1,0-0.3,0-0.4-0.1c-32.6-12.2-65.3-20.7-99.1-25.8c0.8,4.7,1.9,9.4,3.2,14c32.3,2.3,64.4,6.4,96.2,12
		c0.3,0,0.6,0.1,0.8,0.1c2.7,0.5,1.7,4.4-0.8,4.4c-0.2,0-0.3,0-0.4,0c-31.3-5.6-62.7-9.6-94.4-11.9c1.8,5.1,3.9,10.1,6.4,15
		c29.4-2.7,58.9-3.3,88.4-1.4c0.1,0,0.2,0,0.2,0c2.9,0.2,2.9,4.7,0,4.5c-28.8-1.8-57.6-1.4-86.3,1.1c5.4,9.6,12.3,18.5,20.8,26.5
		c39.2,37.3,97,50.2,149.7,44.8c53.1-5.4,106.3-29.3,138.4-73c-20.3-0.9-40.6-0.8-61,0.5c-2.9,0.2-2.9-4.3,0-4.5c0.1,0,0.2,0,0.2,0
		c21.3-1.3,42.6-1.4,63.8-0.3c0-0.1,0.1-0.2,0.2-0.2c2.4-3.6,4.6-7.2,6.6-10.9c-23.5,2.4-46.9,5.6-70.2,9.8c-0.2,0-0.3,0-0.4,0
		c-2.5,0-3.4-3.9-0.7-4.4c0.3,0,0.5-0.1,0.8-0.1c24.2-4.3,48.5-7.7,72.9-10.1c1.9-4,3.5-8.1,4.8-12.2c-26.2,5.2-51.8,12.5-77.4,22
		c-0.1,0.1-0.3,0.1-0.4,0.1c-2.4,0.4-3.3-3.5-0.8-4.4c26.4-9.9,53-17.3,80-22.5C394.8,189.7,385.4,154,360.9,124.6z M133.4,81.7
		C114,92,96.4,104.9,82.8,122.2c-1,1.3-3.5,0.6-3.7-1c-2.7-19.2-6.8-38.1-8.8-57.4c-0.7-6.6-9.4-41.3,5.7-33.8
		c8.6,4.3,16.3,12.8,23.6,18.8c11.4,9.4,22,20.3,33.8,29.1C134.6,78.8,135,80.8,133.4,81.7z M135.5,153.3c0-10.5,8.5-19.1,19.1-19.1
		c10.5,0,19.1,8.5,19.1,19.1s-8.5,19.1-19.1,19.1C144,172.4,135.5,163.9,135.5,153.3z M266.9,300.9c-14.6,6.8-30.8,1.7-40.7-10.7
		c-5.1-6.4-8.1-13.6-9.9-21.2c-1.7,7.6-4.8,14.8-9.9,21.2c-9.9,12.4-26.1,17.4-40.7,10.7c-2.6-1.2-0.4-5.1,2.2-3.9
		c17.3,7.9,33.9-3.8,40.8-19.6c6.3-14.4,5.5-30.4,4.7-45.7c-2.4-0.9-5.1-2.9-8.2-6.3c-4.8-5.4-7.2-11.2,0-11.2h22.1
		c7.2,0,4.4,5.5,0,11.2c-2.2,2.9-4.9,5.9-8.3,6.8c-0.8,15.2-1.5,31,4.8,45.3c6.9,15.7,23.6,27.5,40.8,19.6
		C267.2,295.8,269.5,299.7,266.9,300.9z M278,172.4c-10.5,0-19.1-8.5-19.1-19.1s8.5-19.1,19.1-19.1c10.5,0,19.1,8.5,19.1,19.1
		S288.6,172.4,278,172.4z M352.9,117.3c-0.6,0.1-1.3,0-1.8-0.6c-15.1-15.1-32.1-27.4-53-33c-2-0.5-2-3-0.5-4.1
		c15-11.3,28.9-25,43.4-37.1c4.3-3.5,15.3-16.3,21.7-14.1c0.7,0.2,1.5,0.8,1.6,1.6c1.8,12.4-0.7,25.6-2.1,38
		c-1.8,16-4.3,31.9-7.4,47.7C354.6,116.8,353.7,117.3,352.9,117.3z"/>
	<path class="st0" d="M370.3,256.6c0,0.1-0.1,0.2-0.2,0.2c1.8,0.1,3.6,0.2,5.5,0.3c2.5-3.9,4.8-7.8,6.8-11.9
		c-1.9,0.2-3.7,0.4-5.6,0.6C374.9,249.4,372.7,253,370.3,256.6z"/>
	<path class="st0" d="M228.6,334.2c-52.7,5.3-110.5-7.5-149.7-44.8c-8.5-8-15.3-17-20.8-26.5c-1.7,0.2-3.3,0.4-5,0.5
		c5.3,9.6,12,18.7,20.1,26.8c57.3,57.3,153.8,61.9,224.9,30.5c28.5-12.6,56.1-33.1,74.5-59.3c-1.9-0.1-3.8-0.2-5.7-0.2
		C334.8,304.9,281.7,328.8,228.6,334.2z"/>
	<path class="st0" d="M364.2,30c-0.1-0.8-0.9-1.3-1.6-1.6c-6.4-2.2-17.4,10.6-21.7,14.1c-14.5,12-28.4,25.7-43.4,37.1
		c-1.5,1.1-1.5,3.6,0.5,4.1c20.8,5.6,37.9,17.9,53,33c0.6,0.6,1.2,0.7,1.8,0.6c0.9,0,1.7-0.4,1.9-1.6c3.1-15.8,5.6-31.7,7.4-47.7
		C363.5,55.6,366,42.4,364.2,30z M359.8,46.3c-0.4,5.8-1.1,11.7-1.8,17.5c-1.7,15.7-4,31.2-6.9,46.7c-13.8-13.2-29.4-24.1-47.7-29.9
		c8.3-6.7,16-14.5,24.1-21.3c5-4.2,10-8.3,15.1-12.4c3.8-3.1,9.6-10.1,14.2-11.6c3.3-1.1,2.2-2,3.5,1.5
		C361.1,39.4,360,43.5,359.8,46.3z"/>
	<path class="st2" d="M356.8,35.3c-4.6,1.5-10.4,8.5-14.2,11.6c-5,4.1-10.1,8.2-15.1,12.4c-8.1,6.9-15.8,14.6-24.1,21.3
		c18.3,5.8,33.9,16.7,47.7,29.9c2.9-15.5,5.2-31,6.9-46.7c0.6-5.8,1.3-11.7,1.8-17.5c0.2-2.8,1.3-6.9,0.4-9.4
		C359,33.3,360,34.3,356.8,35.3z"/>
	<path class="st0" d="M278,134.3c-10.5,0-19.1,8.5-19.1,19.1s8.5,19.1,19.1,19.1c10.5,0,19.1-8.5,19.1-19.1S288.6,134.3,278,134.3z
		 M271.4,150.5h-0.9c-2.6,0-4.6-2.2-4.7-4.7c-0.1-2.6,2.2-4.7,4.7-4.7h0.9c2.6,0,4.6,2.2,4.7,4.7
		C276.3,148.3,273.9,150.5,271.4,150.5z"/>
	<path class="st3" d="M271.4,141.1h-0.9c-2.5,0-4.8,2.2-4.7,4.7c0.1,2.6,2.1,4.7,4.7,4.7h0.9c2.5,0,4.8-2.2,4.7-4.7
		C276,143.2,274.1,141.1,271.4,141.1z"/>
	<path class="st0" d="M264.6,297c-17.2,7.9-33.9-3.9-40.8-19.6c-6.3-14.2-5.6-30-4.8-45.3c0-0.4,0-0.8,0.1-1.2
		c0.1-1.8-1.5-2.4-2.8-2c-1.3-0.4-2.9,0.3-2.8,2c0,0.2,0,0.5,0,0.7c0.8,15.3,1.6,31.4-4.7,45.7c-6.9,15.8-23.5,27.5-40.8,19.6
		c-2.6-1.2-4.9,2.6-2.2,3.9c14.6,6.8,30.8,1.7,40.7-10.7c5.1-6.4,8.1-13.6,9.9-21.2c1.8,7.6,4.8,14.8,9.9,21.2
		c9.9,12.4,26.1,17.4,40.7,10.7C269.5,299.7,267.2,295.8,264.6,297z"/>
	<path class="st0" d="M216.3,229c1.3-0.4,2.9,0.3,2.8,2c0,0.4,0,0.8-0.1,1.2c3.4-0.9,6.1-3.9,8.3-6.8c4.4-5.7,7.2-11.2,0-11.2h-22.1
		c-7.2,0-4.8,5.8,0,11.2c3.1,3.4,5.8,5.4,8.2,6.3c0-0.2,0-0.5,0-0.7C213.4,229.3,215,228.6,216.3,229z"/>
	<path class="st0" d="M173.6,153.3c0-10.5-8.5-19.1-19.1-19.1c-10.5,0-19.1,8.5-19.1,19.1s8.5,19.1,19.1,19.1
		C165.1,172.4,173.6,163.9,173.6,153.3z M147.9,150.5H147c-2.6,0-4.6-2.2-4.7-4.7c-0.1-2.6,2.2-4.7,4.7-4.7h0.9
		c2.6,0,4.6,2.2,4.7,4.7C152.8,148.3,150.4,150.5,147.9,150.5z"/>
	<path class="st3" d="M147.9,141.1H147c-2.5,0-4.8,2.2-4.7,4.7c0.1,2.6,2.1,4.7,4.7,4.7h0.9c2.5,0,4.8-2.2,4.7-4.7
		C152.5,143.2,150.6,141.1,147.9,141.1z"/>
	<path class="st0" d="M143.8,255.5c0.2,0,0.3,0,0.4,0c2.5,0,3.4-3.9,0.8-4.4c-0.3,0-0.6-0.1-0.8-0.1c-31.9-5.7-64-9.7-96.2-12
		c-1.7-0.1-3.3-0.2-5-0.3c-9.2-0.6-18.3-1.1-27.5-1.4c-2.9-0.1-2.9,4.4,0,4.5c9.6,0.4,19.3,0.9,28.9,1.5c1.7,0.1,3.4,0.2,5.1,0.4
		C81.1,245.9,112.6,249.9,143.8,255.5z"/>
	<path class="st0" d="M143.8,250.8c0.1,0.1,0.3,0.1,0.4,0.1c2.4,0.4,3.3-3.5,0.8-4.4c-33.2-12.4-66.6-21-101-26.1
		c-1.6-0.2-3.3-0.5-4.9-0.7c-10.7-1.5-21.6-2.6-32.6-3.5c-2.9-0.2-2.9,4.3,0,4.5c11.2,0.8,22.3,2,33.3,3.6c1.6,0.2,3.3,0.5,4.9,0.7
		C78.5,230.1,111.2,238.7,143.8,250.8z"/>
	<path class="st0" d="M144.4,261.7c2.9,0.2,2.9-4.3,0-4.5c-0.1,0-0.2,0-0.2,0c-29.5-1.8-59-1.3-88.4,1.4c-1.6,0.2-3.3,0.3-5,0.5
		c-13.9,1.4-27.8,3.3-41.6,5.7c-2.9,0.5-1.6,4.8,1.2,4.3c14.2-2.5,28.4-4.4,42.7-5.8c1.7-0.2,3.3-0.4,5-0.5
		C86.8,260.3,115.6,259.9,144.4,261.7z"/>
	<path class="st0" d="M133.4,77.8C121.6,69,111,58.1,99.6,48.7c-7.3-6-15.1-14.5-23.6-18.8c-15.1-7.5-6.4,27.2-5.7,33.8
		c2,19.3,6.1,38.2,8.8,57.4c0.2,1.6,2.8,2.2,3.7,1C96.4,104.9,114,92,133.4,81.7C135,80.8,134.6,78.8,133.4,77.8z M82.7,115.4
		c-2.6-17.2-6.1-34.2-7.9-51.6c-0.5-4.6-1-9.1-1.4-13.7C73.1,47.6,70.9,37,72.6,35c2.7-3.2,13.1,8.2,16.1,10.7
		c13.2,11,25.9,23.2,39.5,33.7C111,88.9,95.4,100.4,82.7,115.4z"/>
	<path class="st2" d="M72.6,35c-1.7,2,0.5,12.5,0.7,15.1c0.4,4.6,0.9,9.1,1.4,13.7c1.8,17.4,5.3,34.4,7.9,51.6
		c12.7-15,28.3-26.5,45.5-35.9c-13.6-10.5-26.3-22.8-39.5-33.7C85.7,43.2,75.3,31.9,72.6,35z"/>
	<path class="st0" d="M49.5,243.6c-1.7-0.1-3.4-0.2-5.1-0.4c1.8,5.4,3.9,10.7,6.5,15.8c1.7-0.2,3.3-0.3,5-0.5
		C53.3,253.7,51.2,248.7,49.5,243.6z"/>
	<path class="st0" d="M44.7,225c-1.6-0.2-3.3-0.5-4.9-0.7c0.7,4.9,1.8,9.7,3.1,14.4c1.7,0.1,3.4,0.2,5,0.3
		C46.6,234.4,45.5,229.7,44.7,225z"/>
</g>
</svg>
