<?xml version="1.0" encoding="utf-8"?>
<!-- Generator: Adobe Illustrator 21.0.2, SVG Export Plug-In . SVG Version: 6.00 Build 0)  -->
<svg version="1.1" id="Layer_1" xmlns="http://www.w3.org/2000/svg" xmlns:xlink="http://www.w3.org/1999/xlink" x="0px" y="0px"
	 viewBox="0 0 2000 2000" style="enable-background:new 0 0 2000 2000;" xml:space="preserve">
<style type="text/css">
	.st0{fill:#F26823;}
	.st1{fill:#F58020;}
	.st2{fill:none;stroke:#231F20;stroke-width:4.9512;stroke-linejoin:round;stroke-miterlimit:10;}
	.st3{fill:#F2F2F2;}
	.st4{fill:#F36F24;}
	.st5{fill:#32C2D9;}
	.st6{fill:#1DAABF;}
	.st7{opacity:0.6;fill:#FFFFFF;}
	.st8{fill:#FFD248;}
	.st9{fill:#FDB94A;}
	.st10{fill:#BDBEC0;}
	.st11{fill:#E6E7E7;}
	.st12{fill:#2BACE2;stroke:#231F20;stroke-width:5;stroke-linejoin:round;stroke-miterlimit:10;}
	.st13{fill:none;stroke:#231F20;stroke-width:5;stroke-linejoin:round;stroke-miterlimit:10;}
	.st14{fill:#233F86;}
	.st15{fill:#E3E4E3;}
	.st16{fill:#939598;}
	.st17{fill:#D2D3D4;}
	.st18{opacity:0.3;fill:#FFFFFF;}
	.st19{opacity:0.8;fill:#FFFFFF;}
	.st20{fill:#7F8183;}
	.st21{fill:#30B0C5;}
	.st22{fill:#FFFFFF;}
	.st23{fill:#A8AAAD;}
</style>
<g>
	<g>
		<g>
			<rect x="1149.7" y="1470" class="st0" width="131.4" height="131.4"/>
			<rect x="1281.1" y="1470" class="st1" width="302.1" height="131.4"/>
			<rect x="1583.2" y="1470" class="st0" width="282.4" height="131.4"/>
			<polyline class="st2" points="1583.2,1601.4 1865.6,1601.4 1865.6,1470 1583.2,1470 			"/>
			<polyline class="st2" points="1281.1,1470 1149.7,1470 1149.7,1601.4 1281.1,1601.4 			"/>
			<line class="st2" x1="1281.1" y1="1601.4" x2="1583.2" y2="1601.4"/>
			<line class="st2" x1="1583.2" y1="1470" x2="1281.1" y2="1470"/>
		</g>
		<circle class="st7" cx="1784.1" cy="1537.3" r="31.2"/>
	</g>
	<g>
		<g>
			<rect x="1077.5" y="1601.4" class="st8" width="715.9" height="131.4"/>
			<rect x="1077.5" y="1601.4" class="st2" width="715.9" height="131.4"/>
		</g>
		<rect x="1112" y="1641.6" class="st9" width="195" height="19.9"/>
		<rect x="1112" y="1681.4" class="st9" width="135.3" height="19.9"/>
		<rect x="1267.2" y="1681.4" class="st9" width="87.5" height="19.9"/>
		<rect x="1450.3" y="1641.6" class="st7" width="290.5" height="59.7"/>
	</g>
	<g>
		<g>
			<rect x="203.9" y="1470" class="st5" width="131.4" height="131.4"/>
			<rect x="335.3" y="1470" class="st6" width="302.1" height="131.4"/>
			<rect x="637.4" y="1470" class="st5" width="282.4" height="131.4"/>
			<polyline class="st2" points="637.4,1601.4 919.8,1601.4 919.8,1470 637.4,1470 			"/>
			<polyline class="st2" points="335.3,1470 203.9,1470 203.9,1601.4 335.3,1601.4 			"/>
			<line class="st2" x1="335.3" y1="1601.4" x2="637.4" y2="1601.4"/>
			<line class="st2" x1="637.4" y1="1470" x2="335.3" y2="1470"/>
		</g>
		<circle class="st7" cx="838.3" cy="1537.3" r="31.2"/>
	</g>
	<g>
		<g>
			<rect x="269.6" y="1601.4" class="st0" width="715.9" height="131.4"/>
			<rect x="269.6" y="1601.4" class="st2" width="715.9" height="131.4"/>
		</g>
		<rect x="304.2" y="1641.6" class="st1" width="195" height="19.9"/>
		<rect x="304.2" y="1681.4" class="st1" width="135.3" height="19.9"/>
		<rect x="459.4" y="1681.4" class="st1" width="87.5" height="19.9"/>
		<rect x="642.4" y="1641.6" class="st7" width="290.5" height="59.7"/>
	</g>
	<circle class="st11" cx="1824.8" cy="840.3" r="27"/>
	<circle class="st5" cx="1785.4" cy="1273.8" r="27"/>
	<circle class="st0" cx="130.3" cy="1273.8" r="27"/>
	<circle class="st5" cx="255.1" cy="669.5" r="27"/>
	<circle class="st0" cx="1049.8" cy="367.4" r="27"/>
	<g>
		<path class="st20" d="M1658.7,544c0-7.3-2.6-9.9-9.9-9.9H368.1c-7.3,0-16.4,2.6-16.4,9.9v758.6h1307V544z"/>
		<rect x="427.5" y="603" class="st5" width="1154.1" height="704.4"/>
		<rect x="841.4" y="1550.1" class="st10" width="322.3" height="171.1"/>
		<rect x="351.7" y="1302.5" class="st11" width="1307" height="243"/>
		<path class="st13" d="M1645.6,533.3H364.9c-7.3,0-14.9,6.6-14.9,13.9v996.9h1309.3V547.2C1659.2,540,1652.8,533.3,1645.6,533.3z"
			/>
		<rect x="789.7" y="1721.2" class="st11" width="425.8" height="51.7"/>
		<line class="st13" x1="722" y1="1775" x2="1279.2" y2="1775"/>
	</g>
	<circle class="st21" cx="992.1" cy="984" r="272.6"/>
	<g>
		<g id="XMLID_83_">
			<g>
				<rect x="144.8" y="823.1" class="st11" width="124.8" height="98.5"/>
				<polygon class="st3" points="309,875.6 309,921.6 269.6,921.6 269.6,823.1 309,823.1 				"/>
				<polygon class="st11" points="1333.6,872.4 1208.8,921.6 1208.8,875.6 1208.8,823.1 				"/>
				<polygon class="st8" points="1208.8,875.6 1208.8,921.6 309,921.6 309,875.6 1205.5,875.6 				"/>
				<polygon class="st8" points="1208.8,823.1 1208.8,875.6 1205.5,875.6 309,875.6 309,823.1 				"/>
			</g>
			<g>
				<line class="st2" x1="309" y1="823.1" x2="1208.8" y2="823.1"/>
				<line class="st2" x1="1208.8" y1="921.6" x2="309" y2="921.6"/>
				<polyline class="st2" points="305.7,875.6 309,875.6 1205.5,875.6 				"/>
				<polyline class="st2" points="269.6,921.6 309,921.6 309,875.6 309,823.1 269.6,823.1 				"/>
				<rect x="144.8" y="823.1" class="st2" width="124.8" height="98.5"/>
				<polygon class="st2" points="1208.8,823.1 1333.6,872.4 1208.8,921.6 1208.8,875.6 				"/>
			</g>
		</g>
	</g>
	<g>
		<g id="XMLID_84_">
			<g>
				<rect x="850.9" y="987.3" class="st8" width="1024.6" height="157.6"/>
			</g>
			<g>
				<rect x="850.9" y="987.3" class="st2" width="1024.6" height="157.6"/>
			</g>
		</g>
		<line class="st13" x1="1364.7" y1="989" x2="1364.7" y2="1036.8"/>
		<line class="st13" x1="1297.1" y1="989" x2="1297.1" y2="1064.6"/>
		<line class="st13" x1="1233.4" y1="989" x2="1233.4" y2="1036.8"/>
		<line class="st13" x1="1165.7" y1="989" x2="1165.7" y2="1064.6"/>
		<line class="st13" x1="1102.1" y1="989" x2="1102.1" y2="1036.8"/>
		<line class="st13" x1="1034.4" y1="989" x2="1034.4" y2="1064.6"/>
		<line class="st13" x1="970.7" y1="989" x2="970.7" y2="1036.8"/>
		<line class="st13" x1="903.1" y1="989" x2="903.1" y2="1064.6"/>
		<line class="st13" x1="1428.4" y1="989" x2="1428.4" y2="1064.6"/>
		<line class="st13" x1="1496" y1="989" x2="1496" y2="1036.8"/>
		<line class="st13" x1="1559.7" y1="989" x2="1559.7" y2="1064.6"/>
		<line class="st13" x1="1627.4" y1="989" x2="1627.4" y2="1036.8"/>
		<line class="st13" x1="1691" y1="989" x2="1691" y2="1064.6"/>
		<line class="st13" x1="1758.7" y1="989" x2="1758.7" y2="1036.8"/>
		<line class="st13" x1="1822.4" y1="989" x2="1822.4" y2="1064.6"/>
	</g>
	<g>
		<rect x="1299.1" y="463.7" class="st0" width="461.6" height="318.4"/>
		<rect x="1326.9" y="706.5" class="st22" width="405.9" height="47.8"/>
		<polygon class="st22" points="1568.2,591.4 1498,560.8 1498,625.7 		"/>
		<line class="st13" x1="1346.8" y1="732.3" x2="1712.9" y2="732.3"/>
		<line class="st13" x1="1388.6" y1="702.5" x2="1388.6" y2="762.2"/>
	</g>
	<g>
		<g>
			<polygon class="st3" points="204.7,1084.5 204.7,1327.3 487.7,1327.3 558.9,1380.1 558.9,1327.3 610.6,1327.3 610.6,1084.5 			
				"/>
		</g>
		<g>
			<line class="st13" x1="248.5" y1="1146.2" x2="336" y2="1146.2"/>
			<line class="st13" x1="355.9" y1="1146.2" x2="550.9" y2="1146.2"/>
			<line class="st13" x1="248.5" y1="1205.9" x2="288.3" y2="1205.9"/>
			<line class="st13" x1="308.2" y1="1205.9" x2="550.9" y2="1205.9"/>
			<line class="st13" x1="248.5" y1="1257.6" x2="375.8" y2="1257.6"/>
			<line class="st13" x1="395.7" y1="1257.6" x2="479.3" y2="1257.6"/>
		</g>
	</g>
	<g>
		<polyline class="st2" points="456.8,624.4 479,646.6 530.7,594.9 		"/>
		<line class="st13" x1="566.8" y1="601" x2="769.8" y2="601"/>
		<line class="st13" x1="566.8" y1="644.8" x2="841.4" y2="644.8"/>
	</g>
	<g>
		<polyline class="st2" points="456.8,736.1 479,758.2 530.7,706.5 		"/>
		<line class="st13" x1="566.8" y1="712.4" x2="769.8" y2="712.4"/>
		<line class="st13" x1="566.8" y1="756.2" x2="841.4" y2="756.2"/>
	</g>
	<g>
		<line class="st13" x1="789.7" y1="1138.2" x2="753.9" y2="1138.2"/>
		<line class="st13" x1="734" y1="1138.2" x2="662.3" y2="1138.2"/>
		<line class="st13" x1="789.7" y1="1090.5" x2="753.9" y2="1090.5"/>
		<line class="st13" x1="734" y1="1090.5" x2="690.2" y2="1090.5"/>
	</g>
	<g>
		<line class="st13" x1="789.7" y1="1034.8" x2="753.9" y2="1034.8"/>
		<line class="st13" x1="734" y1="1034.8" x2="662.3" y2="1034.8"/>
		<line class="st13" x1="789.7" y1="987" x2="753.9" y2="987"/>
		<line class="st13" x1="734" y1="987" x2="690.2" y2="987"/>
	</g>
	<g>
		<polygon class="st22" points="1235.1,639.9 1213.4,742.3 1188.5,717.4 1144.5,761.4 1110.2,727.1 1154.3,683.1 1132.7,661.5 		"/>
	</g>
	<g>
		<polygon class="st22" points="787.5,1224.4 889.9,1246.1 865,1271 909,1315 874.8,1349.3 830.8,1305.2 809.2,1326.8 		"/>
	</g>
	<path class="st13" d="M1116,756.2h-39.3c-30.8,0-30.8-39.8-61.6-39.8h-54.3"/>
	<path class="st13" d="M1064.3,1309.4h-40.1c-30.8,0-30.8,39.8-61.6,39.8h-57.5"/>
	<line class="st13" x1="1084.2" y1="1309.4" x2="1116" y2="1309.4"/>
	<line class="st13" x1="932.9" y1="716.4" x2="901.1" y2="716.4"/>
	<g>
		<line class="st13" x1="1840.3" y1="692.5" x2="1872.1" y2="692.5"/>
		<line class="st13" x1="1892" y1="692.5" x2="1963.6" y2="692.5"/>
		<line class="st13" x1="1840.3" y1="736.3" x2="1872.1" y2="736.3"/>
		<line class="st13" x1="1892" y1="736.3" x2="1939.8" y2="736.3"/>
	</g>
	<g>
		<line class="st13" x1="-6.2" y1="1130.3" x2="25.6" y2="1130.3"/>
		<line class="st13" x1="45.5" y1="1130.3" x2="117.1" y2="1130.3"/>
		<line class="st13" x1="-6.2" y1="1178" x2="25.6" y2="1178"/>
		<line class="st13" x1="45.5" y1="1178" x2="93.3" y2="1178"/>
	</g>
	<g>
		<line class="st13" x1="1975.6" y1="1361.1" x2="1943.7" y2="1361.1"/>
		<line class="st13" x1="1923.8" y1="1361.1" x2="1852.2" y2="1361.1"/>
		<line class="st13" x1="1975.6" y1="1317.3" x2="1943.7" y2="1317.3"/>
		<line class="st13" x1="1923.8" y1="1317.3" x2="1880.1" y2="1317.3"/>
	</g>
	<g>
		<line class="st13" x1="224.6" y1="585.1" x2="192.8" y2="585.1"/>
		<line class="st13" x1="172.9" y1="585.1" x2="97.2" y2="585.1"/>
		<line class="st13" x1="224.6" y1="541.3" x2="192.8" y2="541.3"/>
		<line class="st13" x1="172.9" y1="541.3" x2="125.1" y2="541.3"/>
	</g>
	<g>
		<line class="st13" x1="769.8" y1="370.2" x2="801.6" y2="370.2"/>
		<line class="st13" x1="821.5" y1="370.2" x2="893.1" y2="370.2"/>
		<line class="st13" x1="769.8" y1="414" x2="801.6" y2="414"/>
		<line class="st13" x1="821.5" y1="414" x2="869.3" y2="414"/>
	</g>
</g>
</svg>
