<?xml version="1.0" encoding="utf-8"?>
<!-- Generator: Adobe Illustrator 21.0.2, SVG Export Plug-In . SVG Version: 6.00 Build 0)  -->
<svg version="1.1" id="Layer_1" xmlns="http://www.w3.org/2000/svg" xmlns:xlink="http://www.w3.org/1999/xlink" x="0px" y="0px"
	 viewBox="0 0 2000 2000" style="enable-background:new 0 0 2000 2000;" xml:space="preserve">
<style type="text/css">
	.st0{fill:#F26823;}
	.st1{fill:#F58020;}
	.st2{fill:none;stroke:#231F20;stroke-width:4.9512;stroke-linejoin:round;stroke-miterlimit:10;}
	.st3{fill:#F2F2F2;}
	.st4{fill:#F36F24;}
	.st5{fill:#32C2D9;}
	.st6{fill:#1DAABF;}
	.st7{opacity:0.6;fill:#FFFFFF;}
	.st8{fill:#FFD248;}
	.st9{fill:#FDB94A;}
	.st10{fill:#BDBEC0;}
	.st11{fill:#E6E7E7;}
	.st12{fill:#2BACE2;stroke:#231F20;stroke-width:5;stroke-linejoin:round;stroke-miterlimit:10;}
	.st13{fill:none;stroke:#231F20;stroke-width:5;stroke-linejoin:round;stroke-miterlimit:10;}
	.st14{fill:#233F86;}
	.st15{fill:#E3E4E3;}
	.st16{fill:#939598;}
	.st17{fill:#D2D3D4;}
	.st18{opacity:0.3;fill:#FFFFFF;}
	.st19{opacity:0.8;fill:#FFFFFF;}
	.st20{fill:#7F8183;}
	.st21{fill:#30B0C5;}
	.st22{fill:#FFFFFF;}
	.st23{fill:#A8AAAD;}
</style>
<g>
	<g>
		<path class="st3" d="M1785,1011.2c0,421.8-341.9,763.8-763.8,763.8c-421.8,0-763.8-341.9-763.8-763.8
			c0-421.8,341.9-763.8,763.8-763.8C1443,247.4,1785,589.4,1785,1011.2z"/>
		<path class="st15" d="M1598.9,1009.6c0,319.9-259.3,579.3-579.3,579.3c-319.9,0-579.3-259.3-579.3-579.3
			c0-319.9,259.3-579.3,579.3-579.3C1339.5,430.4,1598.9,689.7,1598.9,1009.6z"/>
	</g>
	<g>
		<g>
			<polyline class="st2" points="1584.8,1224.7 1608.3,1248.2 1663.2,1193.3 			"/>
			<line class="st13" x1="1707" y1="1199.3" x2="1892.8" y2="1199.3"/>
			<line class="st13" x1="1707" y1="1245.8" x2="1964.6" y2="1245.8"/>
		</g>
		<g>
			<polyline class="st2" points="1584.8,1378 1608.3,1401.5 1663.2,1346.6 			"/>
			<line class="st13" x1="1707" y1="1351.3" x2="1892.8" y2="1351.3"/>
			<line class="st13" x1="1707" y1="1402" x2="1964.6" y2="1402"/>
		</g>
	</g>
	<g>
		<g>
			<polygon class="st8" points="187.1,336 187.1,597.7 488.8,597.7 562.9,653.7 562.9,597.7 617.8,597.7 617.8,336 			"/>
		</g>
		<g>
			<line class="st13" x1="237.8" y1="405.6" x2="326.5" y2="405.6"/>
			<line class="st13" x1="347.6" y1="405.6" x2="558.7" y2="405.6"/>
			<line class="st13" x1="237.8" y1="469" x2="280" y2="469"/>
			<line class="st13" x1="301.1" y1="469" x2="558.7" y2="469"/>
			<line class="st13" x1="237.8" y1="523.8" x2="368.7" y2="523.8"/>
			<line class="st13" x1="389.8" y1="523.8" x2="478.4" y2="523.8"/>
		</g>
	</g>
	<g>
		<g>
			<polygon class="st5" points="1749.2,1746.1 1749.2,1488.5 1447.5,1488.5 1373.5,1432 1373.5,1488.5 1318.6,1488.5 1318.6,1746.1 
							"/>
		</g>
		<g>
			<line class="st13" x1="1698.6" y1="1680.6" x2="1609.9" y2="1680.6"/>
			<line class="st13" x1="1588.8" y1="1680.6" x2="1377.7" y2="1680.6"/>
			<line class="st13" x1="1698.6" y1="1617.3" x2="1656.4" y2="1617.3"/>
			<line class="st13" x1="1635.2" y1="1617.3" x2="1377.7" y2="1617.3"/>
			<line class="st13" x1="1698.6" y1="1562.4" x2="1567.7" y2="1562.4"/>
			<line class="st13" x1="1546.6" y1="1562.4" x2="1457.9" y2="1562.4"/>
		</g>
	</g>
	<g>
		<g id="XMLID_87_">
			<g>
				<polygon class="st16" points="1584.8,794.4 1368.8,891.9 1013.4,1052.2 672,898.2 442.1,794.4 1013.4,536.6 				"/>
				<polygon class="st17" points="1013.4,1052.2 1368.8,891.9 1368.8,1346.9 1013.4,1498.2 672,1345.8 672,898.2 				"/>
			</g>
			<g>
				<polyline class="st2" points="1368.8,891.9 1584.8,794.4 1013.4,536.6 442.1,794.4 672,898.2 				"/>
				<polygon class="st2" points="1368.8,891.9 1013.4,1052.2 672,898.2 672,1345.8 1013.4,1498.2 1368.8,1346.9 				"/>
				<line class="st2" x1="1013.4" y1="1055.7" x2="1013.4" y2="1341.4"/>
			</g>
		</g>
		<polyline class="st13" points="1009.4,795.1 1506.5,891.9 1506.5,1053.7 		"/>
		<circle class="st3" cx="1011.7" cy="792.7" r="42.4"/>
		<rect x="1470.6" y="994.6" class="st0" width="76" height="185.8"/>
		<line class="st13" x1="1470.6" y1="1186.7" x2="1546.6" y2="1186.7"/>
		<line class="st13" x1="1470.6" y1="1047.4" x2="1517" y2="1047.4"/>
		<line class="st13" x1="1470.6" y1="1114.9" x2="1517" y2="1114.9"/>
	</g>
	<path class="st2" d="M260,1074.6c-1.7-20.9-2.6-42-2.6-63.4"/>
	<path class="st2" d="M1021.2,1775c-387,0-706.8-287.9-756.9-661.2"/>
	<path class="st2" d="M1781.9,942.8c2,22.5,3,45.3,3,68.4"/>
	<path class="st2" d="M1021.2,247.4c387.3,0,707.3,288.3,757,662"/>
	<g>
		<g>
			<polyline class="st2" points="31,743.9 54.5,767.4 109.4,712.5 			"/>
			<line class="st13" x1="161.8" y1="718.1" x2="347.6" y2="718.1"/>
			<line class="st13" x1="161.8" y1="764.5" x2="410.9" y2="764.5"/>
		</g>
		<g>
			<polyline class="st2" points="31,897.2 54.5,920.7 109.4,865.8 			"/>
			<line class="st13" x1="161.8" y1="870" x2="347.6" y2="870"/>
			<line class="st13" x1="161.8" y1="920.7" x2="410.9" y2="920.7"/>
		</g>
	</g>
	<g>
		<circle class="st5" cx="1394.9" cy="348.4" r="134.1"/>
		<circle class="st18" cx="1393.6" cy="347.1" r="84"/>
		<g>
			<g>
				<path class="st13" d="M1464.3,420.4v-31c0-20.4-15.5-26-35.9-26h-61.5c-20.4,0-42,5.6-42,26v31"/>
				<path class="st13" d="M1426.3,290.9c0-13.6-11-24.6-24.6-24.6h-14.2c-13.6,0-24.6,11-24.6,24.6v14.2c0,13.6,11,24.6,24.6,24.6
					h14.2c13.6,0,24.6-11,24.6-24.6V290.9z"/>
			</g>
			<line class="st13" x1="1367.2" y1="420.4" x2="1367.2" y2="399.3"/>
			<line class="st13" x1="1426.3" y1="420.4" x2="1426.3" y2="399.3"/>
		</g>
	</g>
	<g>
		<path class="st0" d="M560.5,1470.2c0,74.1-60.1,134.1-134.1,134.1s-134.1-60-134.1-134.1c0-74.1,60.1-134.1,134.1-134.1
			S560.5,1396.1,560.5,1470.2z"/>
		<circle class="st18" cx="425.1" cy="1468.9" r="84"/>
		<g>
			<g>
				<path class="st13" d="M497.4,1543.4v-32.2c0-20.4-17.2-29-37.6-29h-61.5c-20.4,0-40.3,8.6-40.3,29v32.2"/>
				<path class="st13" d="M455.2,1409.7c0-13.6-11-24.6-24.6-24.6h-14.2c-13.6,0-24.6,11-24.6,24.6v14.2c0,13.6,11,24.6,24.6,24.6
					h14.2c13.6,0,24.6-11,24.6-24.6V1409.7z"/>
			</g>
			<line class="st13" x1="400.3" y1="1543.4" x2="400.3" y2="1522.3"/>
			<line class="st13" x1="455.2" y1="1543.4" x2="455.2" y2="1522.3"/>
		</g>
	</g>
	<rect x="955.5" y="1556.1" class="st19" width="122.4" height="126.7"/>
	<rect x="778.2" y="331.7" class="st19" width="126.7" height="126.7"/>
	<rect x="474.2" y="1062.1" class="st19" width="126.7" height="126.7"/>
	<rect x="1377.7" y="538.6" class="st19" width="126.7" height="126.7"/>
	<g>
		<line class="st13" x1="1002" y1="1562.4" x2="976.6" y2="1562.4"/>
		<line class="st13" x1="1002" y1="1621.5" x2="807.8" y2="1621.5"/>
		<line class="st13" x1="1002" y1="1680.6" x2="841.5" y2="1680.6"/>
		<line class="st13" x1="955.5" y1="1562.4" x2="917.5" y2="1562.4"/>
		<line class="st13" x1="896.4" y1="1562.4" x2="871.1" y2="1562.4"/>
	</g>
	<g>
		<line class="st13" x1="1457.9" y1="578.7" x2="1491.7" y2="578.7"/>
		<line class="st13" x1="1512.8" y1="578.7" x2="1588.8" y2="578.7"/>
		<line class="st13" x1="1457.9" y1="625.2" x2="1491.7" y2="625.2"/>
		<line class="st13" x1="1512.8" y1="625.2" x2="1559.3" y2="625.2"/>
	</g>
	<g>
		<line class="st13" x1="858.4" y1="452.1" x2="883.7" y2="452.1"/>
		<line class="st13" x1="858.4" y1="388.7" x2="1052.6" y2="388.7"/>
		<line class="st13" x1="858.4" y1="333.9" x2="1018.8" y2="333.9"/>
		<line class="st13" x1="904.9" y1="452.1" x2="938.6" y2="452.1"/>
		<line class="st13" x1="959.7" y1="452.1" x2="989.3" y2="452.1"/>
	</g>
	<g>
		<line class="st13" x1="520.7" y1="1148.7" x2="486.9" y2="1148.7"/>
		<line class="st13" x1="465.8" y1="1148.7" x2="389.8" y2="1148.7"/>
		<line class="st13" x1="520.7" y1="1102.2" x2="486.9" y2="1102.2"/>
		<line class="st13" x1="465.8" y1="1102.2" x2="419.3" y2="1102.2"/>
	</g>
</g>
</svg>
