<?xml version="1.0" encoding="utf-8"?>
<!-- Generator: Adobe Illustrator 21.0.2, SVG Export Plug-In . SVG Version: 6.00 Build 0)  -->
<svg version="1.1" id="Layer_1" xmlns="http://www.w3.org/2000/svg" xmlns:xlink="http://www.w3.org/1999/xlink" x="0px" y="0px"
	 viewBox="0 0 2000 2000" style="enable-background:new 0 0 2000 2000;" xml:space="preserve">
<style type="text/css">
	.st0{fill:#F26823;}
	.st1{fill:#F58020;}
	.st2{fill:none;stroke:#231F20;stroke-width:4.9512;stroke-linejoin:round;stroke-miterlimit:10;}
	.st3{fill:#F2F2F2;}
	.st4{fill:#F36F24;}
	.st5{fill:#32C2D9;}
	.st6{fill:#1DAABF;}
	.st7{opacity:0.6;fill:#FFFFFF;}
	.st8{fill:#FFD248;}
	.st9{fill:#FDB94A;}
	.st10{fill:#BDBEC0;}
	.st11{fill:#E6E7E7;}
	.st12{fill:#2BACE2;stroke:#231F20;stroke-width:5;stroke-linejoin:round;stroke-miterlimit:10;}
	.st13{fill:none;stroke:#231F20;stroke-width:5;stroke-linejoin:round;stroke-miterlimit:10;}
	.st14{fill:#233F86;}
	.st15{fill:#E3E4E3;}
	.st16{fill:#939598;}
	.st17{fill:#D2D3D4;}
	.st18{opacity:0.3;fill:#FFFFFF;}
	.st19{opacity:0.8;fill:#FFFFFF;}
	.st20{fill:#7F8183;}
	.st21{fill:#30B0C5;}
	.st22{fill:#FFFFFF;}
	.st23{fill:#A8AAAD;}
</style>
<g>
	<circle class="st5" cx="1860.5" cy="741.3" r="29.9"/>
	<circle class="st5" cx="173.8" cy="1257.5" r="29.9"/>
	<circle class="st0" cx="959" cy="290.5" r="29.9"/>
	<circle class="st8" cx="1816.9" cy="1250.3" r="29.9"/>
	<circle class="st8" cx="130.1" cy="726.8" r="29.9"/>
	<circle class="st0" cx="1097.1" cy="1744.7" r="29.9"/>
	<g>
		<g id="XMLID_86_">
			<g>
				<rect x="484.3" y="1541" class="st5" width="138.1" height="90.9"/>
				<polygon class="st3" points="666.1,1589.5 666.1,1631.9 622.5,1631.9 622.5,1541 666.1,1541 				"/>
				<polygon class="st11" points="1800.3,1586.5 1662.2,1631.9 1662.2,1589.5 1662.2,1541 				"/>
				<polygon class="st8" points="1662.2,1589.5 1662.2,1631.9 666.1,1631.9 666.1,1589.5 1658.5,1589.5 				"/>
				<polygon class="st8" points="1662.2,1541 1662.2,1589.5 1658.5,1589.5 666.1,1589.5 666.1,1541 				"/>
			</g>
			<g>
				<line class="st2" x1="666.1" y1="1541" x2="1662.2" y2="1541"/>
				<line class="st2" x1="1662.2" y1="1631.9" x2="666.1" y2="1631.9"/>
				<polyline class="st2" points="662.5,1589.5 666.1,1589.5 1658.5,1589.5 				"/>
				<polyline class="st2" points="622.5,1631.9 666.1,1631.9 666.1,1589.5 666.1,1541 622.5,1541 				"/>
				<rect x="484.3" y="1541" class="st2" width="138.1" height="90.9"/>
				<polygon class="st2" points="1662.2,1541 1800.3,1586.5 1662.2,1631.9 1662.2,1589.5 				"/>
			</g>
		</g>
	</g>
	<g>
		<line class="st13" x1="341.2" y1="473.6" x2="306" y2="473.6"/>
		<line class="st13" x1="283.9" y1="473.6" x2="204.6" y2="473.6"/>
		<line class="st13" x1="341.2" y1="425.1" x2="306" y2="425.1"/>
		<line class="st13" x1="283.9" y1="425.1" x2="235.5" y2="425.1"/>
	</g>
	<g>
		<line class="st13" x1="1790.6" y1="1429.5" x2="1825.8" y2="1429.5"/>
		<line class="st13" x1="1847.8" y1="1429.5" x2="1927.1" y2="1429.5"/>
		<line class="st13" x1="1790.6" y1="1478" x2="1825.8" y2="1478"/>
		<line class="st13" x1="1847.8" y1="1478" x2="1896.3" y2="1478"/>
	</g>
	<g>
		<g>
			<g id="XMLID_85_">
				<g>
					<path class="st23" d="M520.7,569.6v879.7H375.3c-36.1,0-65.4-29.3-65.4-65.4V635c0-36.1,29.3-65.4,65.4-65.4H520.7z"/>
					<rect x="520.7" y="569.6" class="st3" width="959.7" height="879.7"/>
					<path class="st23" d="M1684,635v748.9c0,36.1-29.3,65.4-65.4,65.4h-138.1V569.6h138.1C1654.7,569.6,1684,598.9,1684,635z"/>
				</g>
				<g>
					<path class="st2" d="M1480.4,1449.3h138.1c36.1,0,65.4-29.3,65.4-65.4V635c0-36.1-29.3-65.4-65.4-65.4h-138.1"/>
					<path class="st2" d="M520.7,569.6H375.3c-36.1,0-65.4,29.3-65.4,65.4v748.9c0,36.1,29.3,65.4,65.4,65.4h145.4"/>
					<line class="st2" x1="1480.4" y1="569.6" x2="520.7" y2="569.6"/>
					<line class="st2" x1="520.7" y1="1449.3" x2="1480.4" y2="1449.3"/>
				</g>
			</g>
		</g>
		<line class="st13" x1="519.6" y1="647.6" x2="519.6" y2="1396.5"/>
		<line class="st13" x1="1480" y1="647.6" x2="1480" y2="1396.5"/>
		<circle class="st17" cx="416.5" cy="1001" r="44.8"/>
		<g>
			<path class="st17" d="M1565.9,1016.7c0,8,5.2,14.5,13.2,14.5c8,0,13.2-6.5,13.2-14.5V914.9c0-8-5.2-14.5-13.2-14.5
				c-8,0-13.2,6.5-13.2,14.5V1016.7z"/>
			<path class="st17" d="M1565.9,1091.9c0,8,5.2,14.5,13.2,14.5c8,0,13.2-6.5,13.2-14.5v-17c0-8-5.2-14.5-13.2-14.5
				c-8,0-13.2,6.5-13.2,14.5V1091.9z"/>
		</g>
	</g>
	<g>
		<rect x="574.7" y="647.6" class="st0" width="511" height="348"/>
		<rect x="605.5" y="916.3" class="st22" width="449.3" height="48.5"/>
		<polygon class="st22" points="872.6,785.7 794.9,751.8 794.9,823.7 		"/>
		<line class="st13" x1="627.5" y1="940.5" x2="1032.8" y2="940.5"/>
		<line class="st13" x1="673.8" y1="907.5" x2="673.8" y2="973.6"/>
	</g>
	<rect x="1129.7" y="647.6" class="st11" width="290.8" height="158.6"/>
	<rect x="1129.7" y="837" class="st11" width="290.8" height="158.6"/>
	<rect x="1129.7" y="1022" class="st11" width="290.8" height="163"/>
	<rect x="1129.7" y="1211.5" class="st11" width="290.8" height="163"/>
	<rect x="574.7" y="1039.6" class="st11" width="511" height="26.4"/>
	<rect x="574.7" y="1088.1" class="st11" width="365.6" height="30.8"/>
	<g>
		<rect x="1222.3" y="762.1" class="st10" width="176.2" height="22"/>
		<rect x="1332.4" y="726.9" class="st10" width="66.1" height="22"/>
	</g>
	<g>
		<rect x="1222.3" y="951.5" class="st10" width="176.2" height="22"/>
		<rect x="1332.4" y="916.3" class="st10" width="66.1" height="22"/>
	</g>
	<g>
		<rect x="1222.3" y="1141" class="st10" width="176.2" height="22"/>
		<rect x="1332.4" y="1105.7" class="st10" width="66.1" height="22"/>
	</g>
	<g>
		<rect x="1222.3" y="1330.4" class="st10" width="176.2" height="22"/>
		<rect x="1332.4" y="1295.2" class="st10" width="66.1" height="17.6"/>
	</g>
	<rect x="565.9" y="1167.4" class="st11" width="511" height="211.5"/>
	<g>
		<rect x="852.2" y="1286.3" class="st10" width="171.8" height="22"/>
		<rect x="962.3" y="1251.1" class="st10" width="61.7" height="22"/>
	</g>
	<g>
		<rect x="618.7" y="1286.3" class="st10" width="176.2" height="22"/>
		<rect x="728.9" y="1251.1" class="st10" width="66.1" height="22"/>
	</g>
	<g>
		<g>
			<polygon class="st23" points="487.1,352.2 511.1,465.6 538.7,438 587.4,486.8 625.3,448.8 576.6,400.1 600.5,376.2 			"/>
		</g>
		<path class="st13" d="M654,473.6h44.8c34.1,0,34.1-42.9,68.1-42.9c34.1,0,34.1,44,68.1,44c34.1,0,34.1-43.4,68.1-43.4
			c34.1,0,34.1,42.7,68.1,42.7c34.1,0,34.1-44.5,68.2-44.5h59.4"/>
		<line class="st13" x1="1129.7" y1="429.5" x2="1460.1" y2="429.5"/>
	</g>
	<g>
		<line class="st13" x1="1460.1" y1="367.8" x2="1424.9" y2="367.8"/>
		<line class="st13" x1="1402.9" y1="367.8" x2="1323.6" y2="367.8"/>
		<line class="st13" x1="1460.1" y1="315" x2="1424.9" y2="315"/>
		<line class="st13" x1="1402.9" y1="315" x2="1354.4" y2="315"/>
	</g>
	<g>
		<path class="st5" d="M1597.9,621.9c0,67.6-54.8,122.4-122.4,122.4c-67.6,0-122.4-54.8-122.4-122.4c0-67.6,54.8-122.4,122.4-122.4
			C1543.1,499.6,1597.9,554.4,1597.9,621.9z"/>
		<polygon class="st22" points="1529.6,616.7 1442.5,578.7 1442.5,659.3 		"/>
	</g>
	<g>
		<path class="st0" d="M645.4,1225.4c0,67.6-54.8,122.4-122.4,122.4c-67.6,0-122.4-54.8-122.4-122.4c0-67.6,54.8-122.4,122.4-122.4
			C590.7,1103,645.4,1157.8,645.4,1225.4z"/>
		<polygon class="st22" points="573.7,1220.1 486.6,1182.1 486.6,1262.8 		"/>
	</g>
	<g>
		<line class="st2" x1="203.1" y1="1576.9" x2="126.3" y2="1500.1"/>
		<line class="st2" x1="275.3" y1="1552.9" x2="252.1" y2="1576"/>
		<line class="st2" x1="403" y1="1627.8" x2="330.3" y2="1555.1"/>
		<circle class="st2" cx="301.7" cy="1528.3" r="30.9"/>
		<circle class="st2" cx="229" cy="1601" r="30.9"/>
		<circle class="st2" cx="105.4" cy="1477.4" r="30.9"/>
	</g>
	<g>
		<line class="st2" x1="1830.3" y1="440" x2="1907.1" y2="516.8"/>
		<line class="st2" x1="1758.1" y1="464.1" x2="1781.2" y2="440.9"/>
		<line class="st2" x1="1630.4" y1="389.1" x2="1703.1" y2="461.8"/>
		<circle class="st2" cx="1731.7" cy="488.6" r="30.9"/>
		<circle class="st2" cx="1804.4" cy="415.9" r="30.9"/>
		<circle class="st2" cx="1928" cy="539.5" r="30.9"/>
	</g>
	<g>
		<line class="st13" x1="235.5" y1="909.7" x2="204.6" y2="909.7"/>
		<line class="st13" x1="235.5" y1="975.8" x2="28.4" y2="975.8"/>
		<line class="st13" x1="235.5" y1="1033" x2="68.1" y2="1033"/>
		<line class="st13" x1="182.6" y1="909.7" x2="147.4" y2="909.7"/>
		<line class="st13" x1="125.3" y1="909.7" x2="94.5" y2="909.7"/>
	</g>
	<g>
		<line class="st13" x1="1759.7" y1="1028.6" x2="1790.6" y2="1028.6"/>
		<line class="st13" x1="1759.7" y1="962.5" x2="1962.4" y2="962.5"/>
		<line class="st13" x1="1759.7" y1="905.3" x2="1927.1" y2="905.3"/>
		<line class="st13" x1="1812.6" y1="1028.6" x2="1847.8" y2="1028.6"/>
		<line class="st13" x1="1869.8" y1="1028.6" x2="1896.3" y2="1028.6"/>
	</g>
</g>
</svg>
