<?xml version="1.0" encoding="utf-8"?>
<!-- Generator: Adobe Illustrator 21.0.2, SVG Export Plug-In . SVG Version: 6.00 Build 0)  -->
<svg version="1.1" id="Layer_1" xmlns="http://www.w3.org/2000/svg" xmlns:xlink="http://www.w3.org/1999/xlink" x="0px" y="0px"
	 viewBox="0 0 2000 2000" style="enable-background:new 0 0 2000 2000;" xml:space="preserve">
<style type="text/css">
	.st0{fill:#F26823;}
	.st1{fill:#F58020;}
	.st2{fill:none;stroke:#231F20;stroke-width:4.9512;stroke-linejoin:round;stroke-miterlimit:10;}
	.st3{fill:#F2F2F2;}
	.st4{fill:#F36F24;}
	.st5{fill:#32C2D9;}
	.st6{fill:#1DAABF;}
	.st7{opacity:0.6;fill:#FFFFFF;}
	.st8{fill:#FFD248;}
	.st9{fill:#FDB94A;}
	.st10{fill:#BDBEC0;}
	.st11{fill:#E6E7E7;}
	.st12{fill:#2BACE2;stroke:#231F20;stroke-width:5;stroke-linejoin:round;stroke-miterlimit:10;}
	.st13{fill:none;stroke:#231F20;stroke-width:5;stroke-linejoin:round;stroke-miterlimit:10;}
	.st14{fill:none;}
	.st15{fill:#233F86;}
	.st16{font-family:'WhiteFestiveShadowDemo';}
	.st17{font-size:457px;}
	.st18{fill:#E3E4E3;}
	.st19{fill:#939598;}
	.st20{fill:#D2D3D4;}
	.st21{opacity:0.3;fill:#FFFFFF;}
	.st22{opacity:0.8;fill:#FFFFFF;}
	.st23{fill:#7F8183;}
	.st24{fill:#30B0C5;}
	.st25{fill:#FFFFFF;}
	.st26{fill:#A8AAAD;}
</style>
<g>
	<g>
		<rect x="1568.7" y="1850.6" class="st0" width="138.5" height="138.5"/>
		<rect x="1250" y="1850.6" class="st1" width="318.7" height="138.5"/>
		<rect x="952.1" y="1850.6" class="st0" width="297.9" height="138.5"/>
		<polyline class="st2" points="1250,1850.6 952.1,1850.6 952.1,1989.1 1250,1989.1 		"/>
		<polyline class="st2" points="1568.7,1989.1 1707.2,1989.1 1707.2,1850.6 1568.7,1850.6 		"/>
		<line class="st2" x1="1568.7" y1="1850.6" x2="1250" y2="1850.6"/>
		<line class="st2" x1="1250" y1="1989.1" x2="1568.7" y2="1989.1"/>
	</g>
	<circle class="st3" cx="1038.2" cy="1918.1" r="32.9"/>
	<rect x="1281.3" y="1895.3" class="st4" width="146.9" height="21"/>
	<rect x="1281.3" y="1928.9" class="st4" width="256" height="21"/>
	<rect x="1440.8" y="1895.3" class="st4" width="96.5" height="21"/>
</g>
<g>
	<g>
		<rect x="993.7" y="1573.5" class="st5" width="138.5" height="138.5"/>
		<rect x="1132.3" y="1573.5" class="st6" width="318.7" height="138.5"/>
		<rect x="1450.9" y="1573.5" class="st5" width="297.9" height="138.5"/>
		<polyline class="st2" points="1450.9,1712 1748.8,1712 1748.8,1573.5 1450.9,1573.5 		"/>
		<polyline class="st2" points="1132.3,1573.5 993.7,1573.5 993.7,1712 1132.3,1712 		"/>
		<line class="st2" x1="1132.3" y1="1712" x2="1450.9" y2="1712"/>
		<line class="st2" x1="1450.9" y1="1573.5" x2="1132.3" y2="1573.5"/>
	</g>
	<circle class="st7" cx="1662.8" cy="1644.5" r="32.9"/>
</g>
<g>
	<g>
		<rect x="1097.6" y="1712" class="st8" width="755.1" height="138.5"/>
		<rect x="1097.6" y="1712" class="st2" width="755.1" height="138.5"/>
	</g>
	<rect x="1134.4" y="1748.4" class="st9" width="209.9" height="21"/>
	<rect x="1134.4" y="1790.4" class="st9" width="146.9" height="21"/>
	<rect x="1302.3" y="1790.4" class="st9" width="88.1" height="21"/>
	<rect x="1495.4" y="1748.4" class="st7" width="306.4" height="63"/>
</g>
<g>
	<g>
		<rect x="377.2" y="1573.5" class="st0" width="138.5" height="138.5"/>
		<rect x="515.7" y="1573.5" class="st1" width="318.7" height="138.5"/>
		<rect x="834.4" y="1573.5" class="st0" width="297.9" height="138.5"/>
		<polyline class="st2" points="834.4,1712 1132.3,1712 1132.3,1573.5 834.4,1573.5 		"/>
		<polyline class="st2" points="515.7,1573.5 377.2,1573.5 377.2,1712 515.7,1712 		"/>
		<line class="st2" x1="515.7" y1="1712" x2="834.4" y2="1712"/>
		<line class="st2" x1="834.4" y1="1573.5" x2="515.7" y2="1573.5"/>
	</g>
	<circle class="st3" cx="1046.2" cy="1644.5" r="32.9"/>
	<rect x="655.9" y="1647.7" class="st4" width="146.9" height="21"/>
	<rect x="546.8" y="1609.9" class="st4" width="256" height="21"/>
	<rect x="546.8" y="1647.7" class="st4" width="96.5" height="21"/>
</g>
<g>
	<g>
		<rect x="952.1" y="1850.6" class="st5" width="138.5" height="138.5"/>
		<rect x="633.5" y="1850.6" class="st6" width="318.7" height="138.5"/>
		<rect x="335.6" y="1850.6" class="st5" width="297.9" height="138.5"/>
		<polyline class="st2" points="633.5,1850.6 335.6,1850.6 335.6,1989.1 633.5,1989.1 		"/>
		<polyline class="st2" points="952.1,1989.1 1090.7,1989.1 1090.7,1850.6 952.1,1850.6 		"/>
		<line class="st2" x1="952.1" y1="1850.6" x2="633.5" y2="1850.6"/>
		<line class="st2" x1="633.5" y1="1989.1" x2="952.1" y2="1989.1"/>
	</g>
	<circle class="st7" cx="421.6" cy="1918.1" r="32.9"/>
</g>
<g>
	<g>
		<rect x="231.7" y="1712" class="st8" width="755.1" height="138.5"/>
		<rect x="231.7" y="1712" class="st2" width="755.1" height="138.5"/>
	</g>
	<rect x="739.8" y="1790.4" class="st9" width="209.9" height="21"/>
	<rect x="802.8" y="1748.4" class="st9" width="146.9" height="21"/>
	<rect x="693.7" y="1748.4" class="st9" width="88.1" height="21"/>
	<rect x="282.3" y="1748.4" class="st7" width="306.4" height="63"/>
</g>
<g>
	<g id="XMLID_82_">
		<g>
			<rect x="391" y="970.8" class="st10" width="131.6" height="103.9"/>
			<polygon class="st3" points="564.2,1026.2 564.2,1074.7 522.7,1074.7 522.7,970.8 564.2,970.8 			"/>
			<polygon class="st11" points="1644.9,1022.7 1513.3,1074.7 1513.3,1026.2 1513.3,970.8 			"/>
			<polygon class="st8" points="1513.3,1026.2 1513.3,1074.7 564.2,1074.7 564.2,1026.2 1509.8,1026.2 			"/>
			<polygon class="st8" points="1513.3,970.8 1513.3,1026.2 1509.8,1026.2 564.2,1026.2 564.2,970.8 			"/>
		</g>
		<g>
			<line class="st2" x1="564.2" y1="970.8" x2="1513.3" y2="970.8"/>
			<line class="st2" x1="1513.3" y1="1074.7" x2="564.2" y2="1074.7"/>
			<polyline class="st2" points="560.8,1026.2 564.2,1026.2 1509.8,1026.2 			"/>
			<polyline class="st2" points="522.7,1074.7 564.2,1074.7 564.2,1026.2 564.2,970.8 522.7,970.8 			"/>
			<rect x="391" y="970.8" class="st2" width="131.6" height="103.9"/>
			<polygon class="st2" points="1513.3,970.8 1644.9,1022.7 1513.3,1074.7 1513.3,1026.2 			"/>
		</g>
	</g>
</g>
<rect x="799.7" y="1455.7" class="st8" width="381" height="533.4"/>
<polygon class="st5" points="1208.5,1358.7 1208.5,1455.7 1180.7,1455.7 799.7,1455.7 751.3,1455.7 751.3,1358.7 779,1358.7 
	1130.7,1358.7 "/>
<path class="st3" d="M1196.3,1206.3c14.1,0,22-11.8,24.7-25.5c-4.1,110.1-90.4,177.9-90.4,177.9H779v-239
	c0.3,18,21.8,38.1,39.8,38.1h32.8c18.2,0,31.3-20.4,31.3-38.5c0,18.2,16.2,38.5,34.4,38.5h28v10.7c0,18.2,19.5,37.8,37.7,37.8
	H1196.3z"/>
<path class="st3" d="M1221.1,1180.8c-2.8,13.7-10.7,25.5-24.7,25.5H982.9c-18.2,0-37.7-19.6-37.7-37.8v-10.7v-22.1
	c0-17.1,17.5-19.3,34.7-19.5c1,0,2,0,3,0h93.9h103.9h3.5h12.1c18.2,0,26,1.4,26,19.5v32.8
	C1222.3,1172.7,1221.9,1176.8,1221.1,1180.8z"/>
<path class="st3" d="M1180.7,1047v69.3h-103.9v-3.5v-55.4V905.9c0-18.2,19.3-25.2,37.4-25.2h32.8c18.1,0,33.7,7.1,33.7,25.2v78.7
	V1047z"/>
<path class="st3" d="M982.9,1116.3c-1,0-2,0-3,0l-0.1-3.5v-55.4V905.9c0-18.2,17.7-25.2,35.9-25.2h32.8c18.2,0,28.3,7.1,28.3,25.2
	v151.4v55.4v3.5H982.9z"/>
<path class="st3" d="M979.9,1112.8l0.1,3.5c-17.2,0.2-34.7,2.4-34.7,19.5v22.1h-28c-18.2,0-34.4-20.4-34.4-38.5V905.9
	c0-18.2,16.2-25.2,34.4-25.2h32.8c18.1,0,29.8,7.1,29.8,25.2v151.4V1112.8z"/>
<path class="st3" d="M779,1116.3V1047v-62.3v-78.7c0-18.2,21.6-25.2,39.8-25.2h32.8c18.2,0,31.3,7.1,31.3,25.2v213.4
	c0,18.2-13.2,38.5-31.3,38.5h-32.8c-18,0-39.4-20.1-39.8-38.1c0-0.1,0-0.3,0-0.4V1116.3z"/>
<path class="st2" d="M882.9,1119.3c0,18.2-13.2,38.5-31.3,38.5h-32.8c-18,0-39.4-20.1-39.8-38.1c0-0.1,0-0.3,0-0.4v-3V1047v-62.3
	v-78.7c0-18.2,21.6-25.2,39.8-25.2h32.8c18.2,0,31.3,7.1,31.3,25.2"/>
<path class="st2" d="M979.9,905.9c0-18.2-11.6-25.2-29.8-25.2h-32.8c-18.2,0-34.4,7.1-34.4,25.2v213.4c0,18.2,16.2,38.5,34.4,38.5
	h28h3.5"/>
<line class="st2" x1="979.9" y1="1112.8" x2="979.9" y2="1057.4"/>
<path class="st2" d="M979.9,1057.4V905.9c0-18.2,17.7-25.2,35.9-25.2h32.8c18.2,0,28.3,7.1,28.3,25.2"/>
<path class="st2" d="M1076.8,1112.8v-55.4V905.9c0-18.2,19.3-25.2,37.4-25.2h32.8c18.1,0,33.7,7.1,33.7,25.2v78.7v62.3v69.3v3.5"/>
<path class="st2" d="M1196.3,1116.3c18.2,0,26,1.4,26,19.5v32.8c0,4.1-0.4,8.2-1.2,12.3c-2.8,13.7-10.7,25.5-24.7,25.5H982.9
	c-18.2,0-37.7-19.6-37.7-37.8v-10.7v-22.1c0-17.1,17.5-19.3,34.7-19.5c1,0,2,0,3,0h93.9h103.9h3.5H1196.3z"/>
<polyline class="st2" points="799.7,1455.7 751.3,1455.7 751.3,1358.7 779,1358.7 "/>
<polyline class="st2" points="1130.7,1358.7 1208.5,1358.7 1208.5,1455.7 1180.7,1455.7 "/>
<rect x="799.7" y="1455.7" class="st2" width="381" height="533.4"/>
<line class="st2" x1="882.9" y1="1516.3" x2="882.9" y2="1559.1"/>
<line class="st2" x1="882.9" y1="1589.6" x2="882.9" y2="1632.3"/>
<path class="st2" d="M779,1119.7v239h351.7c0,0,86.3-67.8,90.4-177.9"/>
<line class="st12" x1="227.8" y1="1989.8" x2="1847.9" y2="1989.8"/>
<rect x="1335.9" y="1265.7" class="st0" width="188.9" height="184.7"/>
<g>
	<line class="st13" x1="1449.2" y1="1297.2" x2="1482.8" y2="1297.2"/>
	<line class="st13" x1="1449.2" y1="1360.2" x2="1684.2" y2="1360.2"/>
	<line class="st13" x1="1449.2" y1="1414.7" x2="1801.8" y2="1414.7"/>
	<line class="st13" x1="1508" y1="1297.2" x2="1545.7" y2="1297.2"/>
	<line class="st13" x1="1570.9" y1="1297.2" x2="1608.7" y2="1297.2"/>
</g>
<rect x="496.4" y="682.3" class="st5" width="188.9" height="188.9"/>
<g>
	<line class="st13" x1="576.1" y1="839.7" x2="538.4" y2="839.7"/>
	<line class="st13" x1="576.1" y1="776.7" x2="341.1" y2="776.7"/>
	<line class="st13" x1="576.1" y1="722.2" x2="219.4" y2="722.2"/>
	<line class="st13" x1="513.2" y1="839.7" x2="479.6" y2="839.7"/>
	<line class="st13" x1="450.2" y1="839.7" x2="416.6" y2="839.7"/>
</g>
<g>
	<g>
		<polyline class="st2" points="197.1,1246.1 220.5,1269.5 275,1215 		"/>
		<line class="st13" x1="311.7" y1="1221.7" x2="525.8" y2="1221.7"/>
		<line class="st13" x1="311.7" y1="1267.8" x2="601.3" y2="1267.8"/>
	</g>
	<g>
		<polyline class="st2" points="197.1,1398.5 220.5,1421.9 275,1367.4 		"/>
		<line class="st13" x1="311.7" y1="1372.8" x2="525.8" y2="1372.8"/>
		<line class="st13" x1="311.7" y1="1423.1" x2="601.3" y2="1423.1"/>
	</g>
</g>
<g>
	<g>
		<polyline class="st2" points="1270.8,671.2 1294.2,694.6 1348.7,640 		"/>
		<line class="st13" x1="1386.2" y1="646.6" x2="1600.3" y2="646.6"/>
		<line class="st13" x1="1386.2" y1="692.8" x2="1675.8" y2="692.8"/>
	</g>
	<g>
		<polyline class="st2" points="1270.8,823.6 1294.2,847 1348.7,792.4 		"/>
		<line class="st13" x1="1386.2" y1="797.7" x2="1600.3" y2="797.7"/>
		<line class="st13" x1="1386.2" y1="848.1" x2="1675.8" y2="848.1"/>
	</g>
</g>
<g>
	<line class="st13" x1="842.7" y1="594.2" x2="842.7" y2="627.7"/>
	<line class="st13" x1="842.7" y1="657.1" x2="842.7" y2="699.1"/>
	<line class="st13" x1="781.8" y1="646.6" x2="815.4" y2="646.6"/>
	<line class="st13" x1="865.8" y1="646.6" x2="899.3" y2="646.6"/>
</g>
<g>
	<line class="st13" x1="1749.3" y1="1139.8" x2="1749.3" y2="1173.4"/>
	<line class="st13" x1="1749.3" y1="1202.8" x2="1749.3" y2="1244.7"/>
	<line class="st13" x1="1688.4" y1="1192.3" x2="1726.2" y2="1192.3"/>
	<line class="st13" x1="1772.4" y1="1192.3" x2="1806" y2="1192.3"/>
</g>
<g>
	<line class="st13" x1="99.7" y1="1467.2" x2="99.7" y2="1500.8"/>
	<line class="st13" x1="99.7" y1="1530.2" x2="99.7" y2="1567.9"/>
	<line class="st13" x1="43.1" y1="1519.7" x2="76.7" y2="1519.7"/>
	<line class="st13" x1="122.8" y1="1519.7" x2="160.6" y2="1519.7"/>
</g>
<g>
	<line class="st13" x1="196.3" y1="934.1" x2="196.3" y2="967.7"/>
	<line class="st13" x1="196.3" y1="997.1" x2="196.3" y2="1034.9"/>
	<line class="st13" x1="139.6" y1="986.6" x2="173.2" y2="986.6"/>
	<line class="st13" x1="219.4" y1="986.6" x2="257.1" y2="986.6"/>
</g>
<g>
	<line class="st13" x1="1900.4" y1="1488.2" x2="1900.4" y2="1521.8"/>
	<line class="st13" x1="1900.4" y1="1551.1" x2="1900.4" y2="1588.9"/>
	<line class="st13" x1="1843.7" y1="1540.7" x2="1877.3" y2="1540.7"/>
	<line class="st13" x1="1923.5" y1="1540.7" x2="1961.3" y2="1540.7"/>
</g>
<g>
	<line class="st13" x1="1102.9" y1="690.7" x2="1102.9" y2="724.3"/>
	<line class="st13" x1="1102.9" y1="753.7" x2="1102.9" y2="795.6"/>
	<line class="st13" x1="1046.2" y1="743.2" x2="1079.8" y2="743.2"/>
	<line class="st13" x1="1130.2" y1="743.2" x2="1163.8" y2="743.2"/>
</g>
<circle class="st8" cx="1771.5" cy="947.4" r="28.5"/>
<circle class="st10" cx="898.7" cy="753.4" r="28.5"/>
<circle class="st5" cx="102.1" cy="1176" r="28.5"/>
<circle class="st0" cx="656.2" cy="1176" r="28.5"/>
<circle class="st8" cx="254.5" cy="1619.3" r="28.5"/>
<circle class="st5" cx="1161.9" cy="524.8" r="28.5"/>
<circle class="st5" cx="1930.9" cy="1369.9" r="28.5"/>
<circle class="st10" cx="1355.9" cy="1162.1" r="28.5"/>
<rect x="19.7" y="62.7" class="st14" width="1942.9" height="457.1"/>
<text transform="matrix(1 0 0 1 373.9248 405.4644)" class="st15 st16 st17">EDUMOTION</text>
</svg>
